<svg width="28" height="28" viewBox="0 0 35 35" fill="none" xmlns="http://www.w3.org/2000/svg">
<path d="M13.2811 7.94508C14.1532 5.393 17.6794 5.31571 18.7134 7.71321L18.8009 7.94654L19.9777 11.3882C20.2474 12.1775 20.6833 12.8998 21.2559 13.5063C21.8284 14.1129 22.5244 14.5896 23.2969 14.9043L23.6134 15.0224L27.055 16.1978C29.6071 17.0699 29.6844 20.5961 27.2884 21.6301L27.055 21.7176L23.6134 22.8945C22.8238 23.164 22.1012 23.5997 21.4944 24.1723C20.8876 24.7449 20.4107 25.441 20.0959 26.2136L19.9777 26.5286L18.8023 29.9718C17.9302 32.5238 14.404 32.6011 13.3715 30.2051L13.2811 29.9718L12.1057 26.5301C11.8361 25.7405 11.4004 25.018 10.8278 24.4111C10.2552 23.8043 9.5591 23.3274 8.78649 23.0126L8.47149 22.8945L5.02982 21.719C2.47628 20.847 2.39899 17.3207 4.79649 16.2882L5.02982 16.1978L8.47149 15.0224C9.26079 14.7527 9.98307 14.3168 10.5896 13.7442C11.1961 13.1717 11.6728 12.4757 11.9875 11.7032L12.1057 11.3882L13.2811 7.94508ZM27.7084 2.91675C27.9812 2.91675 28.2485 2.99328 28.48 3.13764C28.7115 3.28201 28.8979 3.48842 29.018 3.73342L29.0879 3.90404L29.5984 5.40029L31.0961 5.91071C31.3695 6.0036 31.6092 6.17556 31.7847 6.40481C31.9603 6.63406 32.0639 6.91027 32.0823 7.19845C32.1007 7.48662 32.0332 7.77377 31.8883 8.02352C31.7433 8.27327 31.5275 8.47437 31.2682 8.60133L31.0961 8.67133L29.5998 9.18175L29.0894 10.6795C28.9964 10.9528 28.8243 11.1924 28.5949 11.3678C28.3656 11.5432 28.0893 11.6466 27.8012 11.6649C27.513 11.6832 27.2259 11.6155 26.9763 11.4704C26.7266 11.3254 26.5256 11.1095 26.3988 10.8501L26.3288 10.6795L25.8184 9.18321L24.3207 8.67279C24.0472 8.5799 23.8076 8.40794 23.632 8.17869C23.4564 7.94944 23.3528 7.67322 23.3344 7.38505C23.316 7.09688 23.3835 6.80972 23.5285 6.55998C23.6734 6.31023 23.8892 6.10913 24.1486 5.98217L24.3207 5.91217L25.8169 5.40175L26.3273 3.90404C26.4257 3.61591 26.6117 3.36578 26.8594 3.18873C27.107 3.01167 27.4039 2.91657 27.7084 2.91675Z" fill="#585CE1"/>
</svg>
