<svg width="51" height="50" viewBox="0 0 51 50" fill="none" xmlns="http://www.w3.org/2000/svg">
<path d="M38.9056 30.156C38.39 30.6716 31.6872 28.0936 31.1716 27.578C30.1404 26.5468 30.656 23.9688 30.1404 22.422C29.6248 20.8752 27.5624 20.8752 25.5 20.8752C24.6957 20.8752 21.3752 20.8752 20.8596 22.422C20.344 23.9688 20.8596 26.5468 19.8284 27.578C19.3128 28.0936 12.61 30.6716 12.0944 30.156C10.032 28.0936 10.032 25 11.0632 22.9376C12.0944 20.8752 13.1256 19.844 15.7036 18.2972C18.2816 16.7505 20.344 15.7193 25.5 15.7193C30.656 15.7193 32.7184 16.7505 35.2964 18.2973C37.8744 19.844 38.9056 20.8752 39.9368 22.9376C40.968 25 40.968 28.0936 38.9056 30.156Z" fill="white" stroke="white" stroke-width="2" stroke-linecap="round" stroke-linejoin="round"/>
</svg>
