<svg width="20" height="24" viewBox="0 0 20 24" fill="none" xmlns="http://www.w3.org/2000/svg">
<path d="M3.84943 13.5725L2.41478 14.9781C2.01705 14.0225 1.81818 13.0297 1.81818 11.9998V10.2185C1.81818 9.97724 1.90815 9.76849 2.08807 9.5922C2.268 9.41592 2.48106 9.32778 2.72728 9.32778C2.97349 9.32778 3.18656 9.41592 3.36648 9.5922C3.5464 9.76849 3.63637 9.97724 3.63637 10.2185V11.9998C3.63637 12.4916 3.70739 13.0158 3.84943 13.5725ZM19.6733 5.19443L14.5455 10.2185V11.9998C14.5455 13.2245 14.1004 14.273 13.2102 15.1451C12.3201 16.0172 11.25 16.4533 10 16.4533C9.47917 16.4533 8.96307 16.3651 8.45171 16.1889L7.08807 17.5249C8.00663 17.9981 8.97728 18.2347 10 18.2347C11.7519 18.2347 13.2505 17.6246 14.4957 16.4046C15.741 15.1845 16.3636 13.7163 16.3636 11.9998V10.2185C16.3636 9.97724 16.4536 9.76849 16.6335 9.5922C16.8135 9.41592 17.0265 9.32778 17.2727 9.32778C17.5189 9.32778 17.732 9.41592 17.9119 9.5922C18.0919 9.76849 18.1818 9.97724 18.1818 10.2185V11.9998C18.1818 14.0503 17.4834 15.834 16.0867 17.3509C14.6899 18.8679 12.964 19.7377 10.9091 19.9604V21.7974H14.5455C14.7917 21.7974 15.0047 21.8856 15.1847 22.0618C15.3646 22.2381 15.4545 22.4469 15.4545 22.6881C15.4545 22.9293 15.3646 23.1381 15.1847 23.3144C15.0047 23.4907 14.7917 23.5788 14.5455 23.5788H5.45455C5.20834 23.5788 4.99527 23.4907 4.81534 23.3144C4.63542 23.1381 4.54546 22.9293 4.54546 22.6881C4.54546 22.4469 4.63542 22.2381 4.81534 22.0618C4.99527 21.8856 5.20834 21.7974 5.45455 21.7974H9.09091V19.9604C7.9072 19.8398 6.79451 19.464 5.75284 18.8331L2.14489 22.368C2.05019 22.4608 1.94129 22.5072 1.81818 22.5072C1.69508 22.5072 1.58618 22.4608 1.49148 22.368L0.326707 21.2268C0.23201 21.134 0.184662 21.0273 0.184662 20.9067C0.184662 20.7861 0.23201 20.6794 0.326707 20.5866L17.8551 3.41305C17.9498 3.32027 18.0587 3.27388 18.1818 3.27388C18.3049 3.27388 18.4138 3.32027 18.5085 3.41305L19.6733 4.55425C19.768 4.64703 19.8153 4.75373 19.8153 4.87434C19.8153 4.99495 19.768 5.10165 19.6733 5.19443ZM14.2756 3.35739L5.45455 11.9998V4.87434C5.45455 3.64964 5.89962 2.60123 6.78978 1.7291C7.67993 0.856965 8.75 0.420898 10 0.420898C10.9659 0.420898 11.8395 0.6946 12.6207 1.242C13.402 1.7894 13.9536 2.49453 14.2756 3.35739Z" fill="#585CE1"/>
</svg>
