<svg width="31" height="30" viewBox="0 0 31 30" fill="none" xmlns="http://www.w3.org/2000/svg">
<path d="M15.5 20C18.2575 20 20.5 17.7563 20.5 15V7.5C20.5 4.7425 18.2575 2.5 15.5 2.5C12.7425 2.5 10.5 4.7425 10.5 7.5V15C10.5 17.7563 12.7425 20 15.5 20ZM24.25 15V12.5C24.25 12.1685 24.1183 11.8505 23.8839 11.6161C23.6495 11.3817 23.3315 11.25 23 11.25C22.6685 11.25 22.3505 11.3817 22.1161 11.6161C21.8817 11.8505 21.75 12.1685 21.75 12.5V15C21.75 18.4462 18.9462 21.25 15.5 21.25C12.0538 21.25 9.25 18.4462 9.25 15V12.5C9.25 12.1685 9.1183 11.8505 8.88388 11.6161C8.64946 11.3817 8.33152 11.25 8 11.25C7.66848 11.25 7.35054 11.3817 7.11612 11.6161C6.8817 11.8505 6.75 12.1685 6.75 12.5V15C6.75 19.4 10.0162 23.04 14.25 23.65V25H10.5C10.1685 25 9.85054 25.1317 9.61612 25.3661C9.3817 25.6005 9.25 25.9185 9.25 26.25C9.25 26.5815 9.3817 26.8995 9.61612 27.1339C9.85054 27.3683 10.1685 27.5 10.5 27.5H20.5C20.8315 27.5 21.1495 27.3683 21.3839 27.1339C21.6183 26.8995 21.75 26.5815 21.75 26.25C21.75 25.9185 21.6183 25.6005 21.3839 25.3661C21.1495 25.1317 20.8315 25 20.5 25H16.75V23.65C20.9838 23.04 24.25 19.4 24.25 15Z" fill="#585CE1"/>
</svg>
