<svg width="31" height="30" viewBox="0 0 31 30" fill="none" xmlns="http://www.w3.org/2000/svg">
<path d="M5.0536 5.35596C4.41424 5.35596 3.80106 5.60994 3.34897 6.06204C2.89687 6.51414 2.64288 7.12731 2.64288 7.76667V22.231C2.64274 22.5476 2.70499 22.8612 2.82608 23.1538C2.94717 23.4464 3.12472 23.7123 3.34859 23.9363C3.57246 24.1602 3.83826 24.3379 4.13081 24.4591C4.42336 24.5804 4.73693 24.6427 5.0536 24.6427H25.9465C26.5858 24.6427 27.199 24.3888 27.6511 23.9367C28.1032 23.4846 28.3572 22.8714 28.3572 22.232V7.76774C28.3572 7.12838 28.1032 6.51521 27.6511 6.06311C27.199 5.61101 26.5858 5.35703 25.9465 5.35703L5.0536 5.35596ZM16.0657 9.47131L19.5532 12.9588C19.6996 13.1104 19.7804 13.3135 19.7785 13.5242C19.7766 13.7348 19.692 13.9364 19.5429 14.0853C19.3939 14.2342 19.1923 14.3186 18.9816 14.3203C18.7709 14.3221 18.5679 14.241 18.4165 14.0945L16.3015 11.9795V19.9585C16.3015 20.1716 16.2168 20.376 16.0661 20.5267C15.9154 20.6774 15.711 20.762 15.4979 20.762C15.2848 20.762 15.0804 20.6774 14.9297 20.5267C14.779 20.376 14.6943 20.1716 14.6943 19.9585V11.9817L12.5836 14.0945C12.5095 14.1713 12.4209 14.2326 12.3228 14.2747C12.2248 14.3169 12.1194 14.3391 12.0127 14.3401C11.906 14.3411 11.8002 14.3208 11.7014 14.2804C11.6026 14.2401 11.5129 14.1804 11.4374 14.105C11.3619 14.0296 11.3022 13.9399 11.2618 13.8412C11.2213 13.7424 11.2009 13.6366 11.2018 13.5299C11.2027 13.4232 11.2248 13.3178 11.2669 13.2197C11.3089 13.1217 11.3701 13.033 11.4468 12.9588L14.929 9.47238C15.0036 9.39771 15.0922 9.33848 15.1897 9.29806C15.2872 9.25764 15.3918 9.23684 15.4973 9.23684C15.6029 9.23684 15.7075 9.25764 15.805 9.29806C15.9025 9.33848 15.9911 9.39664 16.0657 9.47131Z" fill="#C8C9F7"/>
</svg>
