<svg width="30" height="30" viewBox="0 0 30 30" fill="none" xmlns="http://www.w3.org/2000/svg">
<path fill-rule="evenodd" clip-rule="evenodd" d="M23.7125 8.71254C23.8883 8.53698 24.1266 8.43837 24.375 8.43837C24.6234 8.43837 24.8617 8.53698 25.0375 8.71254L25.04 8.71504L25.0438 8.71754L25.0525 8.72629L25.0775 8.75129L25.155 8.83754C25.2175 8.90879 25.305 9.01004 25.4062 9.13879C26.5612 10.64 27.1875 12.4809 27.1875 14.375C27.1875 16.2691 26.5612 18.1101 25.4062 19.6113C25.3016 19.7449 25.1915 19.8742 25.0763 19.9988L25.0513 20.0238L25.0438 20.0325L25.04 20.035L25.0387 20.0363L24.4012 19.4013L25.0387 20.0388C24.8629 20.2147 24.6243 20.3135 24.3756 20.3135C24.1269 20.3135 23.8884 20.2147 23.7125 20.0388C23.5366 19.8629 23.4378 19.6244 23.4378 19.3757C23.4378 19.1269 23.5366 18.8884 23.7125 18.7125L23.7113 18.7138L23.7087 18.715L23.715 18.7088L23.7562 18.6638C23.7962 18.6205 23.8542 18.5509 23.93 18.455C24.7208 17.4227 25.1947 16.1829 25.2941 14.8863C25.3935 13.5897 25.1142 12.2921 24.49 11.1513C24.327 10.851 24.1398 10.5647 23.93 10.295C23.8621 10.2073 23.7904 10.1227 23.715 10.0413L23.7087 10.035C23.5344 9.85887 23.437 9.62084 23.4377 9.37302C23.4384 9.12519 23.5372 8.88772 23.7125 8.71254ZM16.2962 4.24504C17.75 3.28629 19.6875 4.33004 19.6875 6.07129V23.9288C19.6875 25.6713 17.75 26.7138 16.2962 25.755L8.79625 20.8113C8.74551 20.7775 8.68598 20.7592 8.625 20.7588H5C4.08832 20.7588 3.21398 20.3966 2.56932 19.752C1.92466 19.1073 1.5625 18.233 1.5625 17.3213V12.6788C1.5625 11.7671 1.92466 10.8928 2.56932 10.2481C3.21398 9.60346 4.08832 9.24129 5 9.24129H8.625C8.68628 9.24149 8.74627 9.22367 8.7975 9.19004L16.2962 4.24504Z" fill="#585CE1"/>
</svg>
