<svg width="31" height="30" viewBox="0 0 31 30" fill="none" xmlns="http://www.w3.org/2000/svg">
<path fill-rule="evenodd" clip-rule="evenodd" d="M22.3375 11.8375C22.5133 11.662 22.7516 11.5634 23 11.5634C23.2484 11.5634 23.4867 11.662 23.6625 11.8375L25.5 13.675L27.3375 11.8375C27.5152 11.6719 27.7503 11.5818 27.9932 11.5861C28.236 11.5904 28.4678 11.6887 28.6395 11.8605C28.8113 12.0323 28.9097 12.264 28.914 12.5069C28.9183 12.7498 28.8281 12.9848 28.6625 13.1625L26.8263 15L28.6637 16.8375C28.8344 17.0144 28.9288 17.2513 28.9266 17.4971C28.9243 17.7429 28.8256 17.978 28.6517 18.1517C28.4778 18.3255 28.2426 18.424 27.9968 18.426C27.751 18.428 27.5142 18.3334 27.3375 18.1625L25.5 16.325L23.6625 18.1625C23.4848 18.3281 23.2497 18.4183 23.0068 18.414C22.764 18.4097 22.5322 18.3113 22.3605 18.1396C22.1887 17.9678 22.0903 17.7361 22.086 17.4932C22.0817 17.2503 22.1719 17.0153 22.3375 16.8375L24.175 15L22.3375 13.1625C22.1619 12.9868 22.0633 12.7485 22.0633 12.5C22.0633 12.2516 22.1619 12.0133 22.3375 11.8375ZM16.7962 4.24504C18.25 3.28629 20.1875 4.33004 20.1875 6.07129V23.9288C20.1875 25.6713 18.25 26.7138 16.7962 25.755L9.29625 20.8113C9.24551 20.7775 9.18598 20.7592 9.125 20.7588H5.5C4.58832 20.7588 3.71398 20.3966 3.06932 19.752C2.42466 19.1073 2.0625 18.233 2.0625 17.3213V12.6788C2.0625 11.7671 2.42466 10.8928 3.06932 10.2481C3.71398 9.60346 4.58832 9.24129 5.5 9.24129H9.125C9.18628 9.24149 9.24627 9.22367 9.2975 9.19004L16.7962 4.24504Z" fill="#585CE1"/>
</svg>
