<svg width="600" height="601" viewBox="0 0 600 601" fill="none" xmlns="http://www.w3.org/2000/svg">
<path d="M600 459.38H0V459.68H600V459.38Z" fill="#EBEBEB"/>
<path d="M385.824 476.108H346.08V476.408H385.824V476.108Z" fill="#EBEBEB"/>
<path d="M498.924 472.856H488.496V473.156H498.924V472.856Z" fill="#EBEBEB"/>
<path d="M475.908 467.552H393.204V467.852H475.908V467.552Z" fill="#EBEBEB"/>
<path d="M270.168 474.632H233.808V474.932H270.168V474.632Z" fill="#EBEBEB"/>
<path d="M223.128 474.632H200.064V474.932H223.128V474.632Z" fill="#EBEBEB"/>
<path d="M119.16 469.568H62.952V469.868H119.16V469.568Z" fill="#EBEBEB"/>
<path d="M284.4 405.86H52.692C50.8768 405.857 49.1371 405.134 47.8547 403.849C46.5722 402.564 45.852 400.823 45.852 399.008V73.292C45.8678 71.4872 46.595 69.7616 47.8757 68.4899C49.1564 67.2181 50.8872 66.5031 52.692 66.5H284.4C286.217 66.5 287.96 67.2219 289.245 68.5069C290.53 69.7919 291.252 71.5347 291.252 73.352V399.008C291.252 400.825 290.53 402.568 289.245 403.853C287.96 405.138 286.217 405.86 284.4 405.86ZM52.692 66.74C50.9564 66.7432 49.2929 67.4349 48.0668 68.6633C46.8406 69.8917 46.152 71.5564 46.152 73.292V399.008C46.152 400.744 46.8406 402.408 48.0668 403.637C49.2929 404.865 50.9564 405.557 52.692 405.56H284.4C286.137 405.557 287.801 404.866 289.029 403.637C290.258 402.409 290.949 400.745 290.952 399.008V73.292C290.949 71.5553 290.258 69.8906 289.029 68.6625C287.801 67.4345 286.137 66.7432 284.4 66.74H52.692Z" fill="#EBEBEB"/>
<path d="M543.972 405.86H312.252C310.436 405.857 308.695 405.134 307.41 403.85C306.126 402.565 305.403 400.824 305.4 399.008V73.292C305.419 71.4861 306.149 69.7605 307.431 68.4891C308.714 67.2177 310.446 66.5031 312.252 66.5H543.972C545.775 66.5062 547.502 67.2227 548.781 68.4941C550.059 69.7654 550.784 71.4893 550.8 73.292V399.008C550.8 400.821 550.081 402.56 548.802 403.845C547.522 405.129 545.785 405.854 543.972 405.86ZM312.252 66.74C310.515 66.7432 308.851 67.4345 307.623 68.6625C306.394 69.8906 305.703 71.5553 305.7 73.292V399.008C305.703 400.745 306.394 402.409 307.623 403.637C308.851 404.866 310.515 405.557 312.252 405.56H543.972C545.709 405.557 547.373 404.866 548.601 403.637C549.829 402.409 550.521 400.745 550.524 399.008V73.292C550.521 71.5553 549.829 69.8906 548.601 68.6625C547.373 67.4345 545.709 66.7432 543.972 66.74H312.252Z" fill="#EBEBEB"/>
<path d="M68.808 282.2H273.156V94.064L68.808 94.064L68.808 282.2Z" fill="#E6E6E6"/>
<path d="M63.948 282.2H271.044V94.064L63.948 94.064L63.948 282.2Z" fill="#F5F5F5"/>
<path d="M262.344 272.792V103.472L72.66 103.472V272.792H262.344Z" fill="#FAFAFA"/>
<path d="M238.908 272.78L175.116 103.472H148.26L212.052 272.78H238.908Z" fill="white"/>
<path d="M204.432 272.78L140.652 103.472H122.16L185.94 272.78H204.432Z" fill="white"/>
<path d="M147.264 272.792V103.472H136.872V272.792H147.264Z" fill="#E6E6E6"/>
<path d="M205.092 272.78V103.46H194.7V272.78H205.092Z" fill="#E6E6E6"/>
<path d="M145.392 278.744V96.464H132.264V278.744H145.392Z" fill="#F5F5F5"/>
<path d="M203.22 278.756V96.476H190.092V278.756H203.22Z" fill="#F5F5F5"/>
<path d="M73.584 272.792L73.584 103.472H72.66L72.66 272.792H73.584Z" fill="#E6E6E6"/>
<path d="M480.828 459.368V328.304H90V459.368H480.828Z" fill="#F0F0F0"/>
<path d="M464.94 381.296V339.008C464.94 337.205 463.479 335.744 461.676 335.744H109.176C107.373 335.744 105.912 337.205 105.912 339.008V381.296C105.912 383.099 107.373 384.56 109.176 384.56H461.676C463.479 384.56 464.94 383.099 464.94 381.296Z" fill="#F5F5F5"/>
<path d="M464.928 448.016V393.32C464.928 391.517 463.467 390.056 461.664 390.056H109.164C107.361 390.056 105.9 391.517 105.9 393.32V448.016C105.9 449.819 107.361 451.28 109.164 451.28H461.664C463.467 451.28 464.928 449.819 464.928 448.016Z" fill="#F5F5F5"/>
<path d="M393.06 334.928H177.768C177.768 336.612 178.437 338.226 179.627 339.417C180.818 340.607 182.432 341.276 184.116 341.276H386.712C388.396 341.276 390.01 340.607 391.201 339.417C392.391 338.226 393.06 336.612 393.06 334.928Z" fill="#F0F0F0"/>
<path d="M393.06 389.3H177.768C177.768 390.134 177.932 390.959 178.251 391.729C178.57 392.499 179.038 393.199 179.627 393.789C180.217 394.378 180.917 394.846 181.687 395.165C182.457 395.484 183.282 395.648 184.116 395.648H386.712C387.546 395.648 388.371 395.484 389.141 395.165C389.911 394.846 390.611 394.378 391.201 393.789C391.79 393.199 392.258 392.499 392.577 391.729C392.896 390.959 393.06 390.134 393.06 389.3Z" fill="#F0F0F0"/>
<path d="M510 459.368V328.304H480.828V459.368H510Z" fill="#E6E6E6"/>
<path d="M90 320.228V328.304H480.828V320.228H90Z" fill="#FAFAFA"/>
<path d="M446.472 308.528C446.472 311.631 447.705 314.607 449.899 316.801C452.093 318.995 455.069 320.228 458.172 320.228C461.275 320.228 464.251 318.995 466.445 316.801C468.639 314.607 469.872 311.631 469.872 308.528H446.472Z" fill="#F5F5F5"/>
<path d="M415.284 308.528C415.284 311.631 416.517 314.607 418.711 316.801C420.905 318.995 423.881 320.228 426.984 320.228C430.087 320.228 433.063 318.995 435.257 316.801C437.451 314.607 438.684 311.631 438.684 308.528H415.284Z" fill="#F5F5F5"/>
<path d="M94.2 316.28C94.2 318.452 103.932 320.228 115.932 320.228C127.932 320.228 137.664 318.452 137.664 316.28H94.2Z" fill="#F5F5F5"/>
<path d="M94.2 314.204C94.2 316.388 103.932 318.164 115.932 318.164C127.932 318.164 137.664 316.388 137.664 314.204H94.2Z" fill="#F5F5F5"/>
<path d="M480.828 320.228V328.304H510V320.228H480.828Z" fill="#E0E0E0"/>
<path d="M497.28 91.652H425.952V184.592H497.28V91.652Z" fill="#EBEBEB"/>
<path d="M493.956 91.652H422.628V184.592H493.956V91.652Z" fill="#F5F5F5"/>
<path d="M334.704 212.24V283.568H447.408V212.24H334.704Z" fill="#EBEBEB"/>
<path d="M331.272 212.24V283.568H443.976V212.24H331.272Z" fill="#F5F5F5"/>
<path d="M343.764 221.816V273.98H431.484V221.816H343.764Z" fill="white"/>
<path d="M536.604 203.708H478.608V260.852H536.604V203.708Z" fill="#EBEBEB"/>
<path d="M533.28 203.708H475.284V260.852H533.28V203.708Z" fill="#F5F5F5"/>
<path d="M523.704 216.2H484.872V248.372H523.704V216.2Z" fill="white"/>
<path d="M407.508 135.368H349.512V192.512H407.508V135.368Z" fill="#EBEBEB"/>
<path d="M404.196 135.368H346.2V192.512H404.196V135.368Z" fill="#F5F5F5"/>
<path d="M394.62 147.86H355.788V180.032H394.62V147.86Z" fill="white"/>
<path d="M300 513.572C428.499 513.572 532.668 507.49 532.668 499.988C532.668 492.486 428.499 486.404 300 486.404C171.501 486.404 67.332 492.486 67.332 499.988C67.332 507.49 171.501 513.572 300 513.572Z" fill="#F5F5F5"/>
<path d="M380.148 154.196H378.9V162.092H380.148V154.196Z" fill="#407BFF"/>
<path d="M380.148 147.776H378.948C378.942 143.177 377.111 138.768 373.858 135.518C370.605 132.267 366.195 130.439 361.596 130.436V129.236C366.509 129.252 371.217 131.21 374.693 134.683C378.168 138.156 380.129 142.863 380.148 147.776Z" fill="#407BFF"/>
<path d="M361.548 133.556H195.924C188.064 133.556 181.692 139.928 181.692 147.788V485.588C181.692 493.448 188.064 499.82 195.924 499.82H361.548C369.408 499.82 375.78 493.448 375.78 485.588V147.788C375.78 139.928 369.408 133.556 361.548 133.556Z" fill="#407BFF"/>
<path opacity="0.95" d="M369.324 485.588V147.776C369.324 142.945 365.407 139.028 360.576 139.028H194.952C190.121 139.028 186.204 142.945 186.204 147.776L186.204 485.588C186.204 490.419 190.121 494.336 194.952 494.336H360.576C365.407 494.336 369.324 490.419 369.324 485.588Z" fill="white"/>
<path d="M277.776 480.776C283.244 480.776 287.676 476.344 287.676 470.876C287.676 465.408 283.244 460.976 277.776 460.976C272.308 460.976 267.876 465.408 267.876 470.876C267.876 476.344 272.308 480.776 277.776 480.776Z" fill="#407BFF"/>
<path d="M270.204 138.032C270.204 140.199 271.065 142.278 272.598 143.81C274.13 145.343 276.209 146.204 278.376 146.204C280.543 146.204 282.622 145.343 284.154 143.81C285.687 142.278 286.548 140.199 286.548 138.032H270.204Z" fill="#407BFF"/>
<path opacity="0.7" d="M331.812 173.492H225.012C220.656 173.505 216.482 175.241 213.401 178.321C210.321 181.401 208.585 185.576 208.572 189.932V200.9C208.585 205.256 210.321 209.43 213.401 212.511C216.482 215.591 220.656 217.327 225.012 217.34H331.812L348.252 227.084V189.884C348.224 185.537 346.481 181.377 343.403 178.308C340.324 175.238 336.159 173.508 331.812 173.492Z" fill="#407BFF"/>
<path d="M328.836 189.2H227.928V191.936H328.836V189.2Z" fill="white"/>
<path d="M328.836 198.896H247.344V201.632H328.836V198.896Z" fill="white"/>
<path opacity="0.15" d="M224.952 246.5H331.752C336.108 246.513 340.283 248.249 343.363 251.329C346.443 254.409 348.179 258.584 348.192 262.94V273.896C348.179 278.252 346.443 282.426 343.363 285.507C340.283 288.587 336.108 290.323 331.752 290.336H224.952L208.512 300.08V262.88C208.537 258.533 210.279 254.372 213.359 251.304C216.438 248.236 220.605 246.509 224.952 246.5Z" fill="#407BFF"/>
<path opacity="0.5" d="M328.836 262.196H227.928V264.932H328.836V262.196Z" fill="#407BFF"/>
<path opacity="0.5" d="M274.728 271.904H227.928V274.64H274.728V271.904Z" fill="#407BFF"/>
<path opacity="0.5" d="M301.068 271.904H282.036V274.64H301.068V271.904Z" fill="#407BFF"/>
<path opacity="0.7" d="M331.812 319.496H225.012C220.656 319.509 216.482 321.245 213.401 324.325C210.321 327.406 208.585 331.58 208.572 335.936V346.892C208.582 351.249 210.317 355.425 213.398 358.506C216.479 361.587 220.655 363.322 225.012 363.332H331.812L348.252 373.076V335.876C348.22 331.531 346.476 327.374 343.398 324.307C340.32 321.241 336.157 319.512 331.812 319.496Z" fill="#407BFF"/>
<path d="M328.836 335.192H227.928V337.928H328.836V335.192Z" fill="white"/>
<path d="M328.836 344.9H247.344V347.636H328.836V344.9Z" fill="white"/>
<path opacity="0.15" d="M224.952 392.492H266.508C270.863 392.508 275.036 394.245 278.115 397.325C281.195 400.404 282.932 404.577 282.948 408.932V419.9C282.932 424.255 281.195 428.428 278.115 431.507C275.036 434.587 270.863 436.324 266.508 436.34H224.952L208.512 446.072V408.932C208.525 404.576 210.261 400.401 213.341 397.321C216.422 394.241 220.596 392.505 224.952 392.492Z" fill="#407BFF"/>
<path opacity="0.5" d="M233.28 414.416C233.28 415.365 232.998 416.293 232.471 417.083C231.944 417.872 231.194 418.487 230.317 418.851C229.44 419.214 228.475 419.309 227.544 419.124C226.612 418.939 225.757 418.481 225.086 417.81C224.415 417.139 223.957 416.284 223.772 415.352C223.587 414.421 223.682 413.456 224.045 412.579C224.409 411.702 225.024 410.952 225.813 410.425C226.603 409.897 227.531 409.616 228.48 409.616C229.748 409.632 230.96 410.142 231.857 411.039C232.754 411.936 233.264 413.148 233.28 414.416Z" fill="#407BFF"/>
<path opacity="0.5" d="M242.988 415.388C245.672 415.388 247.848 413.212 247.848 410.528C247.848 407.844 245.672 405.668 242.988 405.668C240.304 405.668 238.128 407.844 238.128 410.528C238.128 413.212 240.304 415.388 242.988 415.388Z" fill="#407BFF"/>
<path opacity="0.5" d="M262.404 420.236C262.404 421.185 262.123 422.113 261.595 422.903C261.068 423.692 260.318 424.307 259.441 424.671C258.564 425.034 257.599 425.129 256.668 424.944C255.736 424.759 254.881 424.301 254.21 423.63C253.539 422.959 253.081 422.104 252.896 421.172C252.711 420.241 252.806 419.276 253.169 418.399C253.533 417.522 254.148 416.772 254.937 416.245C255.727 415.718 256.655 415.436 257.604 415.436C258.877 415.436 260.098 415.942 260.998 416.842C261.898 417.742 262.404 418.963 262.404 420.236Z" fill="#407BFF"/>
<path d="M413.196 402.74C414.516 405.368 415.692 408.008 416.928 410.648C418.164 413.288 419.328 415.976 420.432 418.664C421.536 421.352 422.688 424.052 423.744 426.8C424.8 429.548 425.868 432.296 426.84 435.2L422.544 431.156C425.049 432.012 427.673 432.465 430.32 432.5C433.39 432.583 436.462 432.443 439.512 432.08C442.68 431.744 445.872 431.216 449.112 430.616C452.352 430.016 455.592 429.272 458.712 428.54L461.556 435.452C458.434 437.169 455.203 438.68 451.884 439.976C448.56 441.31 445.158 442.44 441.696 443.36C438.097 444.33 434.418 444.973 430.704 445.28C426.561 445.682 422.379 445.341 418.356 444.272L415.536 443.492L414 440.192C411.696 435.14 409.2 429.956 406.8 424.784C405.6 422.192 404.34 419.588 403.14 416.984C401.94 414.38 400.74 411.764 399.54 409.148L413.196 402.74Z" fill="#FFC3BD"/>
<path d="M454.8 430.652L459.516 426.044L467.004 434.144C467.004 434.144 464.292 438.884 457.548 436.124L454.8 430.652Z" fill="#FFC3BD"/>
<path d="M466.632 422.996L470.76 429.728L467.016 434.144L459.528 426.044L466.632 422.996Z" fill="#FFC3BD"/>
<path d="M392.004 391.952C401.604 388.244 409.044 393.776 421.176 409.088L406.968 423.692C406.968 423.692 373.284 399.128 392.004 391.952Z" fill="#263238"/>
<path opacity="0.2" d="M410.028 407.792C405.492 404.852 401.544 405.68 398.208 408.416C399.468 413.084 402.696 418.436 405.804 422.816C406.536 423.392 407.004 423.704 407.004 423.704L414.924 415.556C414.717 413.985 414.172 412.477 413.327 411.137C412.482 409.797 411.356 408.656 410.028 407.792Z" fill="black"/>
<path d="M465.12 493.748L476.616 492.416L475.656 468.848L464.172 470.168L465.12 493.748Z" fill="#FFC3BD"/>
<path d="M476.712 487.46L463.764 487.64C463.554 487.651 463.355 487.736 463.203 487.882C463.051 488.027 462.956 488.223 462.936 488.432L461.472 498.62C461.429 498.861 461.438 499.108 461.499 499.344C461.559 499.581 461.67 499.802 461.824 499.992C461.978 500.182 462.17 500.337 462.389 500.446C462.608 500.555 462.848 500.616 463.092 500.624C467.112 500.492 468.96 500.192 474.036 500.108C477.168 500.108 486.6 500.288 490.92 500.228C495.24 500.168 495.528 495.428 493.74 495.008C485.712 493.208 481.092 490.628 478.416 488.132C477.959 487.692 477.347 487.45 476.712 487.46Z" fill="#263238"/>
<path d="M479.46 484.46C479.641 484.391 479.836 484.367 480.028 484.39C480.22 484.413 480.404 484.483 480.564 484.592C480.691 484.655 480.8 484.748 480.881 484.863C480.963 484.978 481.015 485.112 481.032 485.252C481.176 486.452 478.632 488.612 478.284 488.852C478.249 488.877 478.207 488.891 478.164 488.891C478.121 488.891 478.079 488.877 478.044 488.852C478.003 488.831 477.97 488.797 477.949 488.757C477.927 488.716 477.919 488.67 477.924 488.624C478.008 487.328 478.308 485.024 479.328 484.508L479.46 484.46ZM478.416 488.132C479.424 487.256 480.672 485.936 480.588 485.276C480.588 485.204 480.588 485.096 480.384 485C480.266 484.914 480.126 484.861 479.98 484.849C479.834 484.836 479.687 484.863 479.556 484.928C479.004 485.228 478.584 486.416 478.416 488.132Z" fill="#407BFF"/>
<path d="M479.34 487.7C479.765 487.476 480.23 487.34 480.708 487.299C481.186 487.258 481.667 487.312 482.124 487.46C482.281 487.559 482.402 487.706 482.469 487.879C482.536 488.051 482.545 488.241 482.496 488.42C482.471 488.589 482.407 488.749 482.309 488.889C482.212 489.029 482.082 489.143 481.932 489.224C480.732 489.884 478.188 488.9 478.08 488.864C478.043 488.847 478.009 488.822 477.983 488.791C477.956 488.76 477.936 488.723 477.924 488.684C477.916 488.645 477.918 488.604 477.931 488.566C477.944 488.528 477.966 488.495 477.996 488.468C478.396 488.137 478.851 487.877 479.34 487.7ZM481.572 488.9L481.704 488.84C481.798 488.786 481.879 488.711 481.941 488.622C482.003 488.533 482.045 488.431 482.064 488.324C482.064 488.036 482.004 487.928 481.908 487.88C481.332 487.508 479.568 487.988 478.62 488.6C479.557 488.972 480.579 489.076 481.572 488.9Z" fill="#407BFF"/>
<path opacity="0.2" d="M464.172 470.18L475.656 468.848L476.148 481.004L464.604 481.052L464.172 470.18Z" fill="black"/>
<path d="M407.808 456.5C407.808 456.5 437.64 428.756 457.008 428.336C471.144 428.036 481.248 474.788 481.248 474.788L464.448 475.112C464.448 475.112 461.496 458.576 450.516 454.016C434.652 477.824 369.984 524.876 376.116 473.864C385.716 470.252 407.808 456.5 407.808 456.5Z" fill="#407BFF"/>
<path opacity="0.2" d="M407.808 456.5C407.808 456.5 437.64 428.756 457.008 428.336C471.144 428.036 481.248 474.788 481.248 474.788L464.448 475.112C464.448 475.112 461.496 458.576 450.516 454.016C434.652 477.824 369.984 524.876 376.116 473.864C385.716 470.252 407.808 456.5 407.808 456.5Z" fill="black"/>
<path d="M481.188 477.104L461.436 479L461.496 471.8L482.388 469.316L481.188 477.104Z" fill="#263238"/>
<path d="M368.64 475.628C368.64 475.628 355.812 450.572 354.24 410.216C353.88 400.712 362.436 391.748 372.24 391.244C380.472 390.812 389.184 390.704 396.24 390.728C403.296 390.752 408.696 395.432 409.5 402.224C411.276 417.2 411.588 439.94 420.768 467.024L368.64 475.628Z" fill="#263238"/>
<path opacity="0.2" d="M360.252 410.42C367.32 402.44 369.756 404.984 370.812 405.944C380.604 414.812 366.228 442.424 363.348 446.492C361.325 436.179 360.121 425.723 359.748 415.22C359.674 413.604 359.844 411.986 360.252 410.42Z" fill="black"/>
<path d="M381.792 367.256C381 374.612 379.056 385.904 374.052 391.148C377.988 394.856 384.396 398.504 393.504 400.028C398.208 398.084 398.832 393.752 396.552 390.74C388.512 389.336 388.608 387.056 391.644 381.932L381.792 367.256Z" fill="#FFC3BD"/>
<path opacity="0.2" d="M385.812 373.244L391.644 381.92C390.871 383.114 390.269 384.411 389.856 385.772C387 384.572 383.856 380.204 384.48 376.988C384.698 375.671 385.149 374.403 385.812 373.244Z" fill="black"/>
<path d="M402.864 353.696C407.58 358.7 417.492 358.724 413.232 352.796C408.972 346.868 399.192 349.796 402.864 353.696Z" fill="#263238"/>
<path d="M383.748 353.156C381.12 362.756 379.104 368.132 382.092 374.756C382.999 376.916 384.484 378.785 386.383 380.158C388.282 381.531 390.522 382.355 392.857 382.539C395.193 382.724 397.535 382.262 399.626 381.205C401.717 380.147 403.476 378.535 404.712 376.544C409.512 368.96 413.04 354.62 405.348 347.336C403.754 345.708 401.756 344.535 399.559 343.935C397.361 343.335 395.044 343.332 392.845 343.924C390.645 344.517 388.643 345.684 387.045 347.307C385.446 348.929 384.308 350.948 383.748 353.156Z" fill="#FFC3BD"/>
<path d="M381.6 362.06C382.8 361.844 388.728 360.044 391.62 357.26C394.872 354.128 394.896 351.092 394.02 349.712C393.144 348.332 386.28 345.68 383.076 346.292C378.012 347.264 379.26 356.228 379.332 358.652C379.37 359.371 379.601 360.067 380 360.666C380.399 361.266 380.951 361.747 381.6 362.06Z" fill="#FFC3BD"/>
<path opacity="0.7" d="M381.6 362.06C382.8 361.844 388.728 360.044 391.62 357.26C394.872 354.128 394.896 351.092 394.02 349.712C393.144 348.332 386.28 345.68 383.076 346.292C378.012 347.264 379.26 356.228 379.332 358.652C379.37 359.371 379.601 360.067 380 360.666C380.399 361.266 380.951 361.747 381.6 362.06Z" fill="#263238"/>
<path d="M376.572 362.72C377.506 364.782 379.18 366.419 381.264 367.304C384.024 368.42 385.596 366.104 384.996 363.284C384.456 360.8 382.368 357.212 379.524 357.284C376.68 357.356 375.444 360.176 376.572 362.72Z" fill="#FFC3BD"/>
<path d="M385.596 349.16C397.836 351.776 406.536 358.664 412.32 354.524C416.412 351.596 413.724 346.256 409.032 342.392C405.024 339.092 399.432 338.072 397.752 335.372C397.556 336.27 397.632 337.206 397.97 338.061C398.307 338.915 398.891 339.65 399.648 340.172C399.648 340.172 388.596 338.468 385.536 335.588C384.804 337.304 387.636 340.616 387.636 340.616C387.636 340.616 384.516 343.58 375.636 340.232C376.164 343.1 378.636 347.672 385.596 349.16Z" fill="#263238"/>
<path d="M409.908 355.496H409.428V354.872C410.485 355.004 411.556 354.785 412.478 354.25C413.399 353.714 414.119 352.892 414.528 351.908C414.987 350.593 415.021 349.167 414.625 347.832C414.229 346.496 413.422 345.32 412.32 344.468C411.26 343.643 410.103 342.95 408.876 342.404C406.032 340.976 402.804 339.356 401.244 334.64L401.832 334.448C403.308 338.912 406.284 340.448 409.164 341.84C410.447 342.412 411.656 343.137 412.764 344C413.976 344.928 414.862 346.218 415.294 347.682C415.725 349.147 415.68 350.711 415.164 352.148C414.743 353.182 414.011 354.059 413.069 354.659C412.128 355.259 411.023 355.551 409.908 355.496Z" fill="#263238"/>
<path d="M397.62 362.48C397.356 363.236 397.548 364.016 398.028 364.208C398.508 364.4 399.12 363.944 399.384 363.188C399.648 362.432 399.456 361.652 398.976 361.46C398.496 361.268 397.872 361.7 397.62 362.48Z" fill="#263238"/>
<path d="M406.668 365.216C406.416 365.972 406.596 366.74 407.088 366.932C407.58 367.124 408.18 366.68 408.432 365.912C408.684 365.144 408.516 364.388 408.024 364.184C407.532 363.98 406.932 364.448 406.668 365.216Z" fill="#263238"/>
<path d="M403.344 364.292C403.438 366.98 403.89 369.643 404.688 372.212C402.936 372.932 400.884 371.468 400.884 371.468L403.344 364.292Z" fill="#ED847E"/>
<path d="M396 373.292C394.374 372.396 393.167 370.896 392.64 369.116C392.631 369.087 392.628 369.056 392.632 369.026C392.636 368.995 392.646 368.966 392.662 368.94C392.678 368.914 392.699 368.892 392.724 368.874C392.749 368.857 392.778 368.845 392.808 368.84C392.838 368.833 392.869 368.832 392.899 368.837C392.93 368.843 392.959 368.854 392.984 368.871C393.01 368.888 393.032 368.91 393.049 368.935C393.067 368.961 393.078 368.99 393.084 369.02C393.391 369.988 393.912 370.874 394.608 371.613C395.304 372.353 396.157 372.926 397.104 373.292C397.163 373.316 397.21 373.362 397.234 373.421C397.259 373.479 397.26 373.545 397.236 373.604C397.228 373.633 397.214 373.661 397.195 373.684C397.175 373.707 397.151 373.726 397.123 373.739C397.096 373.751 397.066 373.758 397.035 373.757C397.005 373.757 396.975 373.749 396.948 373.736C396.622 373.61 396.306 373.461 396 373.292Z" fill="#263238"/>
<path d="M395.16 357.512C395.086 357.473 395.024 357.415 394.98 357.344C394.912 357.241 394.887 357.114 394.912 356.993C394.937 356.871 395.009 356.764 395.112 356.696C395.72 356.284 396.422 356.03 397.153 355.957C397.884 355.883 398.622 355.993 399.3 356.276C399.358 356.302 399.409 356.339 399.453 356.385C399.496 356.431 399.53 356.485 399.552 356.544C399.574 356.603 399.585 356.666 399.583 356.729C399.581 356.792 399.566 356.855 399.54 356.912C399.517 356.967 399.482 357.017 399.439 357.059C399.396 357.1 399.345 357.133 399.289 357.154C399.233 357.176 399.173 357.185 399.113 357.183C399.053 357.18 398.994 357.166 398.94 357.14C398.399 356.93 397.815 356.855 397.238 356.92C396.662 356.984 396.109 357.188 395.628 357.512C395.557 357.553 395.476 357.575 395.394 357.575C395.312 357.575 395.231 357.553 395.16 357.512Z" fill="#263238"/>
<path d="M409.752 362.972C409.678 362.947 409.611 362.904 409.557 362.848C409.503 362.791 409.463 362.723 409.44 362.648C409.286 362.063 409 361.522 408.605 361.064C408.21 360.607 407.716 360.246 407.16 360.008C407.041 359.967 406.943 359.882 406.885 359.77C406.827 359.659 406.813 359.529 406.848 359.408C406.863 359.35 406.89 359.295 406.927 359.248C406.964 359.201 407.011 359.162 407.064 359.133C407.117 359.105 407.175 359.088 407.235 359.084C407.295 359.08 407.355 359.088 407.412 359.108C408.118 359.392 408.749 359.838 409.253 360.409C409.757 360.979 410.121 361.66 410.316 362.396C410.336 362.454 410.345 362.516 410.341 362.578C410.337 362.639 410.32 362.699 410.292 362.754C410.264 362.809 410.225 362.858 410.178 362.897C410.13 362.937 410.075 362.966 410.016 362.984C409.929 363.004 409.837 363 409.752 362.972Z" fill="#263238"/>
<path d="M504.996 499.352L511.836 489.404L493.416 473.36L486.576 483.308L504.996 499.352Z" fill="#FFC3BD"/>
<path d="M507.108 484.7L499.08 494.696C498.939 494.864 498.862 495.077 498.862 495.296C498.862 495.515 498.939 495.728 499.08 495.896L505.332 503.672C505.48 503.857 505.669 504.007 505.882 504.109C506.096 504.212 506.331 504.265 506.568 504.265C506.805 504.265 507.04 504.212 507.254 504.109C507.467 504.007 507.656 503.857 507.804 503.672C510.336 500.408 512.028 497.9 515.28 493.844C517.284 491.348 523.584 484.052 526.356 480.644C529.128 477.236 525.96 473.876 524.508 475.028C517.992 480.176 512.196 483.332 508.692 483.812C508.072 483.901 507.507 484.217 507.108 484.7Z" fill="#263238"/>
<path d="M506.58 480.596C506.638 480.411 506.737 480.241 506.87 480.1C507.003 479.958 507.167 479.849 507.348 479.78C507.474 479.715 507.614 479.681 507.756 479.681C507.898 479.681 508.038 479.715 508.164 479.78C509.256 480.416 509.364 483.752 509.364 484.136C509.362 484.18 509.348 484.223 509.322 484.259C509.297 484.296 509.261 484.324 509.22 484.34C509.182 484.363 509.138 484.376 509.094 484.376C509.049 484.376 509.006 484.363 508.968 484.34C507.984 483.5 506.352 481.94 506.568 480.74C506.565 480.692 506.569 480.643 506.58 480.596ZM508.896 483.632C508.8 482.288 508.5 480.512 507.924 480.176C507.868 480.148 507.806 480.134 507.744 480.134C507.682 480.134 507.62 480.148 507.564 480.176C507.426 480.224 507.303 480.307 507.207 480.416C507.11 480.525 507.043 480.657 507.012 480.8C506.928 481.424 507.6 482.468 508.896 483.632Z" fill="#407BFF"/>
<path d="M509.124 482.636C509.4 481.616 509.928 480.512 510.588 480.236C510.762 480.169 510.952 480.159 511.132 480.209C511.311 480.258 511.47 480.365 511.584 480.512C511.704 480.634 511.794 480.782 511.848 480.944C511.902 481.106 511.918 481.279 511.896 481.448C511.728 482.768 509.4 484.256 509.292 484.316C509.258 484.337 509.218 484.349 509.178 484.349C509.138 484.349 509.098 484.337 509.064 484.316C509.026 484.303 508.993 484.279 508.969 484.247C508.945 484.215 508.932 484.176 508.932 484.136C508.912 483.629 508.977 483.122 509.124 482.636ZM511.404 481.544C511.404 481.544 511.404 481.46 511.404 481.412C511.419 481.305 511.408 481.196 511.373 481.093C511.337 480.991 511.278 480.899 511.2 480.824C511.008 480.608 510.864 480.62 510.756 480.668C510.12 480.908 509.448 482.612 509.364 483.728C510.231 483.2 510.937 482.445 511.404 481.544Z" fill="#407BFF"/>
<path opacity="0.2" d="M486.576 483.308L493.416 473.36L502.92 481.628L495.072 490.712L486.576 483.308Z" fill="black"/>
<path d="M387.372 471.968C387.372 471.968 439.812 418.688 463.416 441.488C478.116 455.696 499.716 475.268 499.716 475.268L487.2 487.448C487.2 487.448 455.496 470.588 447.24 461.276C403.92 509.708 365.208 513.02 368.688 475.676C374.829 474.036 381.07 472.797 387.372 471.968Z" fill="#407BFF"/>
<path d="M503.448 475.376L489.696 492.656L483.864 488.744L497.916 470.396L503.448 475.376Z" fill="#263238"/>
<path d="M368.82 406.832L369.852 428.672C370.044 432.272 370.272 435.872 370.548 439.472C370.692 441.236 370.884 442.976 371.076 444.644C371.184 445.484 371.292 446.3 371.424 447.044C371.556 447.788 371.7 448.484 371.796 448.904C371.801 448.968 371.801 449.032 371.796 449.096C371.598 448.739 371.319 448.435 370.98 448.208C370.784 448.066 370.565 447.961 370.332 447.896C370.2 447.896 370.128 447.896 370.188 447.896C371.17 448.047 372.174 447.982 373.128 447.704C376.302 446.912 379.393 445.815 382.356 444.428C385.56 443.024 388.752 441.404 391.956 439.724C395.16 438.044 398.364 436.256 401.472 434.516L405.96 440.516C400.334 445.752 394.222 450.441 387.708 454.52C386.04 455.54 384.312 456.524 382.488 457.448C380.583 458.431 378.605 459.265 376.572 459.944C375.415 460.326 374.232 460.623 373.032 460.832C371.557 461.107 370.051 461.18 368.556 461.048C367.59 460.958 366.639 460.748 365.724 460.424C364.622 460.036 363.586 459.482 362.652 458.78C361.679 458.025 360.839 457.113 360.168 456.08C359.862 455.608 359.589 455.115 359.352 454.604L358.896 453.5C358.474 452.357 358.118 451.191 357.828 450.008C357.564 448.94 357.348 447.944 357.156 446.948C356.76 444.968 356.46 443.036 356.196 441.128C355.644 437.312 355.248 433.544 354.912 429.788C354.24 422.276 353.844 414.848 353.712 407.3L368.82 406.832Z" fill="#FFC3BD"/>
<path d="M365.136 392.756C359.484 393.392 351.024 398.756 350.736 423.692L374.976 421.784C374.976 421.784 386.4 390.32 365.136 392.756Z" fill="#263238"/>
<path d="M421.86 421.88L412.86 422.468C412.329 422.542 411.832 422.773 411.434 423.133C411.036 423.492 410.755 423.963 410.628 424.484L406.416 444.26C406.345 444.475 406.328 444.705 406.368 444.928C406.409 445.151 406.504 445.36 406.646 445.537C406.788 445.714 406.972 445.852 407.182 445.939C407.391 446.026 407.619 446.06 407.844 446.036L416.844 445.448C417.376 445.377 417.875 445.147 418.273 444.787C418.672 444.427 418.952 443.954 419.076 443.432L423.288 423.656C423.359 423.441 423.376 423.211 423.336 422.988C423.295 422.765 423.2 422.556 423.058 422.379C422.916 422.202 422.732 422.064 422.522 421.977C422.313 421.89 422.085 421.856 421.86 421.88Z" fill="#407BFF"/>
<path d="M402.204 434.048L409.656 431.456L407.82 443.132C407.82 443.132 399.516 444.956 398.832 440.492L400.032 436.52C400.183 435.971 400.458 435.463 400.834 435.034C401.21 434.606 401.679 434.269 402.204 434.048Z" fill="#FFC3BD"/>
<path d="M418.176 432.44L414.948 442.832L407.82 443.132L409.656 431.456L418.176 432.44Z" fill="#FFC3BD"/>
<path d="M160.056 187.7C154.2 174.104 186.132 159.872 195.156 181.04C210.48 187.7 190.896 216.02 195.324 220.82C199.752 225.62 203.088 219.8 203.088 219.8C203.088 219.8 207.564 231.728 196.152 241.28C185.928 249.86 155.172 252.188 155.1 235.28C155.004 213.296 167.736 205.52 160.056 187.7Z" fill="#263238"/>
<path d="M189.42 473.132L180.828 478.136L160.2 454.556L170.904 444.896L189.42 473.132Z" fill="#FF8B7B"/>
<path d="M179.844 475.976L188.712 469.172C188.851 469.048 189.03 468.979 189.216 468.979C189.402 468.979 189.581 469.048 189.72 469.172L195.6 474.98C195.744 475.143 195.851 475.334 195.916 475.541C195.98 475.748 196 475.967 195.974 476.182C195.948 476.397 195.877 476.605 195.765 476.791C195.653 476.976 195.502 477.136 195.324 477.26C192.204 479.576 190.584 480.548 186.684 483.548C184.284 485.384 179.484 489.416 176.196 491.948C172.908 494.48 170.412 491.564 171.576 490.232C176.832 484.232 177.972 480.632 178.776 477.428C178.958 476.837 179.334 476.325 179.844 475.976Z" fill="#263238"/>
<path d="M177.852 479.528C177.235 480.103 176.447 480.461 175.608 480.548C175.408 480.54 175.213 480.482 175.041 480.379C174.869 480.276 174.726 480.132 174.624 479.96C174.565 479.851 174.534 479.73 174.534 479.606C174.534 479.482 174.565 479.361 174.624 479.252C175.224 478.052 179.496 477.104 179.976 476.996C180.022 476.989 180.069 476.995 180.112 477.014C180.155 477.033 180.191 477.065 180.216 477.104C180.239 477.144 180.251 477.19 180.251 477.236C180.251 477.282 180.239 477.328 180.216 477.368C179.495 478.159 178.704 478.882 177.852 479.528ZM175.308 479.084C175.182 479.17 175.08 479.286 175.008 479.42C174.981 479.461 174.967 479.509 174.967 479.558C174.967 479.607 174.981 479.655 175.008 479.696C175.07 479.812 175.162 479.909 175.273 479.978C175.385 480.048 175.513 480.087 175.644 480.092C176.424 480.092 177.78 479.204 179.316 477.596C177.907 477.869 176.553 478.372 175.308 479.084Z" fill="#407BFF"/>
<path d="M180.108 477.392H180.012C178.812 477.716 175.728 477.548 175.212 476.6C175.104 476.384 175.068 476.012 175.548 475.568C175.89 475.25 176.341 475.074 176.808 475.076C178.38 475.076 180.06 476.936 180.12 477.02C180.14 477.052 180.151 477.09 180.151 477.128C180.151 477.166 180.14 477.204 180.12 477.236C180.132 477.288 180.128 477.342 180.108 477.392ZM175.98 475.844L175.872 475.94C175.56 476.228 175.632 476.372 175.656 476.42C175.944 476.996 178.14 477.272 179.508 477.08C178.792 476.297 177.839 475.771 176.796 475.58C176.502 475.574 176.215 475.667 175.98 475.844Z" fill="#407BFF"/>
<path d="M158.184 236.996C157.62 239.576 156.984 241.904 156.264 244.316C155.544 246.728 154.8 249.116 153.936 251.42C152.276 256.154 150.328 260.783 148.104 265.28L146.34 268.64C145.704 269.744 145.14 270.848 144.42 271.94L143.388 273.56C143.028 274.112 142.752 274.604 142.26 275.252C142.02 275.564 141.78 275.876 141.456 276.248C141.048 276.728 140.59 277.163 140.088 277.544C139.481 278.008 138.781 278.336 138.036 278.504C137.689 278.582 137.335 278.622 136.98 278.624C136.545 278.629 136.113 278.568 135.696 278.444C134.918 278.234 134.209 277.819 133.644 277.244C133.078 276.677 132.665 275.975 132.444 275.204C132.333 274.848 132.256 274.483 132.216 274.112C132.122 273.247 132.122 272.373 132.216 271.508C132.3 270.788 132.42 270.116 132.54 269.468C132.78 268.16 133.092 266.936 133.416 265.712C134.09 263.303 134.891 260.932 135.816 258.608L140.616 259.664L140.292 266.864C140.292 268.064 140.22 269.192 140.208 270.296C140.208 270.848 140.208 271.388 140.208 271.868C140.206 272.213 140.254 272.557 140.352 272.888C140.352 272.888 140.352 272.888 140.352 272.672C140.204 272.218 139.949 271.807 139.608 271.472C139.143 270.999 138.565 270.652 137.928 270.464C137.583 270.371 137.229 270.319 136.872 270.308C136.59 270.313 136.308 270.345 136.032 270.404C135.602 270.509 135.195 270.692 134.832 270.944C134.58 271.124 134.676 271.028 134.724 270.944L135 270.476L136.608 267.596C137.148 266.588 137.64 265.556 138.168 264.536L139.644 261.416C141.516 257.18 143.244 252.824 144.684 248.384C145.428 246.164 146.112 243.92 146.796 241.676C147.48 239.432 148.092 237.116 148.632 234.992L158.184 236.996Z" fill="#FF8B7B"/>
<path d="M154.08 224.504C150.6 225.068 145.08 247.184 145.08 247.184L153.108 253.364C153.108 253.364 161.16 237.38 161.508 230.192C161.748 224.984 156.708 224.084 154.08 224.504Z" fill="#FF8B7B"/>
<path d="M141.492 260.732L140.136 249.74L133.836 258.98C134.104 260.094 134.691 261.105 135.524 261.892C136.357 262.678 137.401 263.205 138.528 263.408L141.492 260.732Z" fill="#FF8B7B"/>
<path d="M185.52 491.792L175.92 492.116L174.084 458.612L187.404 458.804L185.52 491.792Z" fill="#FF8B7B"/>
<path d="M175.272 489.056L186.072 488.984C186.253 488.977 186.429 489.041 186.563 489.162C186.698 489.283 186.78 489.452 186.792 489.632L187.44 498.14C187.446 498.587 187.276 499.018 186.966 499.339C186.655 499.661 186.231 499.847 185.784 499.856C182.04 499.856 180.24 499.604 175.512 499.64C172.596 499.64 168.312 499.988 164.304 500.024C160.296 500.06 160.332 496.076 162.036 495.704C169.656 494.036 170.988 491.804 173.664 489.704C174.116 489.319 174.68 489.092 175.272 489.056Z" fill="#263238"/>
<path d="M153.492 224.432C153.492 224.432 148.692 225.632 148.692 282.428L187.2 285.836C189.132 270.008 190.692 260.276 203.448 228.572C198.215 226.97 192.867 225.766 187.452 224.972C181.673 224.032 175.834 223.515 169.98 223.424C162.3 223.436 153.492 224.432 153.492 224.432Z" fill="#407BFF"/>
<path opacity="0.2" d="M195.804 235.82L197.856 242.816C196.248 247.148 194.916 250.976 193.8 254.42C192.95 248.149 193.637 241.766 195.804 235.82Z" fill="black"/>
<path d="M140.136 249.74L133.836 258.98L141.492 258.536L145.572 250.088L140.136 249.74Z" fill="#FF8B7B"/>
<path d="M144.132 270.992L151.332 270.884C151.569 270.879 151.803 270.825 152.017 270.723C152.232 270.622 152.422 270.477 152.576 270.296C152.73 270.116 152.845 269.905 152.912 269.678C152.978 269.45 152.996 269.211 152.964 268.976L150.72 252.836C150.667 252.431 150.466 252.06 150.156 251.794C149.846 251.528 149.448 251.387 149.04 251.396L141.84 251.504C141.603 251.505 141.369 251.557 141.153 251.656C140.938 251.755 140.746 251.9 140.591 252.08C140.437 252.259 140.322 252.47 140.256 252.698C140.19 252.926 140.174 253.165 140.208 253.4L142.452 269.54C142.505 269.946 142.705 270.318 143.015 270.586C143.325 270.854 143.723 270.998 144.132 270.992Z" fill="#263238"/>
<path d="M188.892 204.992C186.864 210.56 184.092 220.832 187.392 224.96C181.652 229.759 175.219 233.663 168.312 236.54C164.292 227.156 169.92 223.412 169.92 223.412C176.436 222.464 177.036 217.76 176.652 213.26L188.892 204.992Z" fill="#FF8B7B"/>
<path d="M162.516 198.608C161.508 215.276 151.488 220.052 153.84 228.608C157.164 240.608 170.724 231.212 170.724 231.212C170.724 231.212 163.344 233.612 162.876 227.78C162.492 222.98 179.532 223.724 174.804 212.432C171.768 205.16 162.516 198.608 162.516 198.608Z" fill="#263238"/>
<path opacity="0.2" d="M185.4 209.204L176.664 213.26C176.76 214.314 176.76 215.374 176.664 216.428C178.488 216.596 183.216 215.228 185.004 212.276C185.499 211.332 185.64 210.242 185.4 209.204Z" fill="black"/>
<path d="M190.404 189.32C191.28 198.776 191.856 202.772 187.86 208.316C181.86 216.656 170.04 215.672 166.356 206.648C163.032 198.536 162.156 184.424 170.76 179.276C172.65 178.128 174.803 177.484 177.013 177.403C179.223 177.322 181.416 177.809 183.385 178.815C185.354 179.822 187.033 181.316 188.261 183.154C189.49 184.993 190.227 187.116 190.404 189.32Z" fill="#FF8B7B"/>
<path d="M188.316 179.828C180.852 174.704 174.648 184.544 187.896 194.108C201.144 203.672 196.8 185.648 188.316 179.828Z" fill="#263238"/>
<path d="M184.344 177.08C187.428 179.852 169.068 190.076 159.084 186.68C149.1 183.284 157.116 175.664 160.752 174.68C157.632 177.692 163.092 182.264 165.732 179.408C168.372 176.552 178.152 171.524 184.344 177.08Z" fill="#263238"/>
<path d="M148.644 282.428C148.644 282.428 128.328 368.456 130.116 390.176C132.192 415.568 159.96 456.5 159.96 456.5L172.716 444.92C172.716 444.92 160.056 411.392 150.684 389.552C153.684 367.712 180.204 306.008 180.204 285.224L148.644 282.428Z" fill="#407BFF"/>
<path opacity="0.6" d="M148.644 282.428C148.644 282.428 128.328 368.456 130.116 390.176C132.192 415.568 159.96 456.5 159.96 456.5L172.716 444.92C172.716 444.92 160.056 411.392 150.684 389.552C153.684 367.712 180.204 306.008 180.204 285.224L148.644 282.428Z" fill="black"/>
<path d="M175.068 446.648L159.996 457.88L156.132 454.94L172.668 441.896L175.068 446.648Z" fill="#407BFF"/>
<path opacity="0.2" d="M163.68 320.264C152.484 335.768 151.944 364.28 152.64 380.264C156.48 365.552 164.532 343.58 170.952 323.78C170.796 316.196 168.912 313.004 163.68 320.264Z" fill="black"/>
<path d="M155.868 282.5C155.868 282.5 163.308 356.792 165.792 381.872C168.744 411.644 173.076 459.392 173.076 459.392L187.404 458.792C187.404 458.792 190.548 418.316 188.22 391.592C188.64 356.192 193.86 308.06 187.14 285.788L155.868 282.5Z" fill="#407BFF"/>
<path opacity="0.6" d="M155.868 282.5C155.868 282.5 163.308 356.792 165.792 381.872C168.744 411.644 173.076 459.392 173.076 459.392L187.404 458.792C187.404 458.792 190.548 418.316 188.22 391.592C188.64 356.192 193.86 308.06 187.14 285.788L155.868 282.5Z" fill="black"/>
<path d="M188.496 461.42L172.056 460.952L170.904 455.78L189.504 455.264L188.496 461.42Z" fill="#407BFF"/>
<path d="M175.692 194.54C175.812 195.296 175.5 195.98 174.996 196.064C174.492 196.148 174 195.584 173.88 194.864C173.76 194.144 174.072 193.424 174.576 193.34C175.08 193.256 175.572 193.772 175.692 194.54Z" fill="#263238"/>
<path d="M167.064 195.872C167.184 196.64 166.872 197.324 166.368 197.396C165.864 197.468 165.372 196.916 165.252 196.196C165.132 195.476 165.444 194.744 165.948 194.672C166.452 194.6 166.944 195.116 167.064 195.872Z" fill="#263238"/>
<path d="M166.164 194.636L164.256 194.396C164.256 194.396 165.42 195.68 166.164 194.636Z" fill="#263238"/>
<path d="M169.896 196.628C169.482 198.473 168.82 200.253 167.928 201.92C168.36 202.136 168.834 202.256 169.317 202.27C169.8 202.285 170.28 202.194 170.724 202.004L169.896 196.628Z" fill="#FF5652"/>
<path d="M175.692 204.104C175.303 204.242 174.901 204.343 174.492 204.404C174.433 204.415 174.373 204.402 174.323 204.368C174.274 204.334 174.24 204.283 174.228 204.224C174.223 204.194 174.224 204.163 174.231 204.134C174.238 204.104 174.25 204.076 174.268 204.052C174.286 204.027 174.309 204.006 174.335 203.99C174.361 203.975 174.39 203.964 174.42 203.96C175.374 203.836 176.285 203.488 177.077 202.943C177.87 202.399 178.522 201.674 178.98 200.828C179.008 200.776 179.054 200.737 179.109 200.717C179.165 200.697 179.225 200.698 179.28 200.72C179.308 200.732 179.333 200.749 179.354 200.77C179.375 200.792 179.391 200.817 179.402 200.845C179.413 200.873 179.419 200.903 179.419 200.933C179.418 200.963 179.412 200.992 179.4 201.02C178.614 202.492 177.283 203.599 175.692 204.104Z" fill="#263238"/>
<path d="M193.032 195.776C192.968 196.695 192.722 197.592 192.311 198.415C191.899 199.239 191.328 199.973 190.632 200.576C188.784 202.16 186.828 200.768 186.48 198.476C186.156 196.424 186.744 193.124 189.012 192.476C189.504 192.325 190.026 192.298 190.532 192.397C191.037 192.497 191.51 192.72 191.908 193.047C192.306 193.374 192.617 193.794 192.813 194.27C193.009 194.746 193.084 195.264 193.032 195.776Z" fill="#FF8B7B"/>
<path d="M179.616 189.812C179.556 189.824 179.494 189.824 179.435 189.811C179.375 189.799 179.318 189.775 179.268 189.74C178.81 189.399 178.277 189.173 177.713 189.079C177.15 188.985 176.572 189.027 176.028 189.2C175.973 189.223 175.914 189.235 175.854 189.235C175.794 189.235 175.735 189.223 175.68 189.199C175.625 189.176 175.576 189.141 175.535 189.098C175.493 189.055 175.461 189.004 175.44 188.948C175.396 188.837 175.398 188.712 175.446 188.602C175.493 188.492 175.581 188.405 175.692 188.36C176.375 188.128 177.104 188.064 177.816 188.175C178.529 188.286 179.204 188.567 179.784 188.996C179.881 189.064 179.948 189.167 179.971 189.284C179.993 189.4 179.969 189.521 179.904 189.62C179.833 189.715 179.731 189.783 179.616 189.812Z" fill="#263238"/>
<path d="M163.32 192.56C163.267 192.584 163.21 192.596 163.152 192.596C163.094 192.596 163.037 192.584 162.984 192.56C162.93 192.536 162.881 192.5 162.841 192.457C162.8 192.413 162.769 192.362 162.749 192.306C162.729 192.25 162.72 192.19 162.723 192.131C162.727 192.072 162.742 192.013 162.768 191.96C163.052 191.298 163.492 190.715 164.05 190.26C164.607 189.804 165.267 189.49 165.972 189.344C166.087 189.336 166.201 189.371 166.291 189.443C166.381 189.515 166.44 189.619 166.457 189.733C166.473 189.847 166.446 189.963 166.381 190.058C166.315 190.153 166.217 190.219 166.104 190.244C165.548 190.369 165.029 190.625 164.591 190.99C164.153 191.355 163.808 191.819 163.584 192.344C163.557 192.396 163.52 192.442 163.474 192.479C163.429 192.516 163.376 192.544 163.32 192.56Z" fill="#263238"/>
<path d="M205.98 240.092C206.16 241.832 206.256 243.356 206.304 244.976C206.352 246.596 206.388 248.156 206.376 249.776C206.328 252.976 206.124 256.176 205.764 259.376C205.396 262.615 204.795 265.824 203.964 268.976C203.536 270.604 203.015 272.207 202.404 273.776C202.104 274.568 201.768 275.36 201.42 276.176C201.42 276.176 201.24 276.56 201.12 276.776C200.993 277.025 200.845 277.262 200.676 277.484C200.379 277.923 200.033 278.325 199.644 278.684C199.013 279.225 198.305 279.669 197.544 280.004C196.457 280.459 195.308 280.75 194.136 280.868C193.2 280.971 192.258 281.011 191.316 280.988C189.621 280.942 187.929 280.794 186.252 280.544C183.109 280.047 179.996 279.374 176.928 278.528C173.916 277.7 170.928 276.788 168.012 275.816C165.096 274.844 162.192 273.764 159.3 272.552L160.8 267.944C163.716 268.58 166.68 269.252 169.632 269.816C172.584 270.38 175.524 271.016 178.452 271.448C181.38 271.88 184.308 272.324 187.14 272.504C188.493 272.611 189.852 272.635 191.208 272.576C191.787 272.548 192.365 272.484 192.936 272.384C193.282 272.33 193.617 272.225 193.932 272.072C193.932 272.072 193.932 272.072 193.752 272.168C193.642 272.253 193.544 272.354 193.464 272.468L193.32 272.684C193.32 272.684 193.212 272.924 193.32 272.768C193.548 272.144 193.776 271.568 193.968 270.872C194.376 269.576 194.712 268.244 195.012 266.888C195.574 264.114 195.974 261.309 196.212 258.488C196.476 255.632 196.56 252.728 196.56 249.824C196.56 248.372 196.56 246.92 196.56 245.468C196.56 244.016 196.428 242.516 196.344 241.22L205.98 240.092Z" fill="#FF8B7B"/>
<path d="M203.352 228.572C207.492 231.272 206.088 254.804 206.088 254.804L196.344 256.76C196.344 256.76 196.26 244.76 195.216 236.972C194.508 231.68 200.4 226.64 203.352 228.572Z" fill="#FF8B7B"/>
<path d="M169.992 490.172C169.875 490.016 169.796 489.836 169.76 489.644C169.725 489.452 169.734 489.255 169.788 489.068C169.81 488.929 169.867 488.798 169.953 488.687C170.039 488.576 170.151 488.488 170.28 488.432C171.48 487.916 174.216 489.776 174.528 489.98C174.563 490.005 174.59 490.04 174.605 490.081C174.62 490.122 174.622 490.166 174.612 490.208C174.601 490.253 174.579 490.294 174.548 490.328C174.516 490.362 174.476 490.387 174.432 490.4C173.172 490.7 170.928 491.084 170.088 490.268L169.992 490.172ZM173.808 490.076C172.608 489.368 171.048 488.564 170.436 488.876C170.38 488.902 170.332 488.943 170.296 488.993C170.261 489.044 170.238 489.103 170.232 489.164C170.188 489.302 170.181 489.449 170.213 489.59C170.245 489.732 170.313 489.862 170.412 489.968C170.868 490.376 172.116 490.424 173.808 490.1V490.076Z" fill="#407BFF"/>
<path d="M173.136 489.32C172.796 488.979 172.527 488.575 172.344 488.13C172.161 487.686 172.067 487.209 172.068 486.728C172.121 486.55 172.227 486.393 172.374 486.279C172.52 486.165 172.699 486.099 172.884 486.092C173.052 486.066 173.223 486.078 173.385 486.128C173.547 486.178 173.696 486.264 173.82 486.38C174.792 487.292 174.624 490.052 174.612 490.172C174.61 490.213 174.598 490.253 174.577 490.289C174.557 490.325 174.527 490.354 174.492 490.376C174.457 490.394 174.418 490.403 174.378 490.403C174.338 490.403 174.299 490.394 174.264 490.376C173.835 490.085 173.454 489.729 173.136 489.32ZM173.592 486.824C173.563 486.789 173.531 486.757 173.496 486.728C173.419 486.654 173.326 486.598 173.224 486.564C173.122 486.531 173.014 486.521 172.908 486.536C172.608 486.536 172.548 486.704 172.512 486.812C172.332 487.472 173.316 489.02 174.18 489.74C174.26 488.732 174.056 487.722 173.592 486.824Z" fill="#407BFF"/>
<path d="M188.088 283.604L188.508 287.204C188.604 287.48 188.244 287.732 187.8 287.684L148.2 284.18C147.852 284.18 147.588 283.952 147.6 283.736L147.828 280.232C147.828 279.992 148.176 279.812 148.548 279.848L187.536 283.304C187.646 283.302 187.755 283.328 187.852 283.381C187.948 283.434 188.03 283.51 188.088 283.604Z" fill="white"/>
<path d="M182.136 287.54L183.18 287.624C183.396 287.624 183.564 287.552 183.576 287.42L183.816 282.872C183.816 282.74 183.66 282.608 183.456 282.596L182.4 282.5C182.196 282.5 182.016 282.572 182.004 282.704L181.764 287.264C181.764 287.396 181.932 287.516 182.136 287.54Z" fill="#407BFF"/>
<path opacity="0.6" d="M182.136 287.54L183.18 287.624C183.396 287.624 183.564 287.552 183.576 287.42L183.816 282.872C183.816 282.74 183.66 282.608 183.456 282.596L182.4 282.5C182.196 282.5 182.016 282.572 182.004 282.704L181.764 287.264C181.764 287.396 181.932 287.516 182.136 287.54Z" fill="black"/>
<path d="M151.044 284.78L152.088 284.876C152.304 284.876 152.472 284.804 152.484 284.672L152.724 280.112C152.724 279.98 152.568 279.86 152.364 279.836L151.32 279.752C151.104 279.752 150.936 279.824 150.924 279.956L150.684 284.504C150.672 284.636 150.84 284.768 151.044 284.78Z" fill="#407BFF"/>
<path opacity="0.6" d="M151.044 284.78L152.088 284.876C152.304 284.876 152.472 284.804 152.484 284.672L152.724 280.112C152.724 279.98 152.568 279.86 152.364 279.836L151.32 279.752C151.104 279.752 150.936 279.824 150.924 279.956L150.684 284.504C150.672 284.636 150.84 284.768 151.044 284.78Z" fill="black"/>
<path d="M166.596 286.16L167.64 286.256C167.844 286.256 168.024 286.172 168.024 286.04L168.276 281.492C168.276 281.36 168.12 281.24 167.904 281.216L166.86 281.12C166.656 281.12 166.476 281.204 166.476 281.336L166.224 285.884C166.224 286.016 166.392 286.1 166.596 286.16Z" fill="#407BFF"/>
<path opacity="0.6" d="M166.596 286.16L167.64 286.256C167.844 286.256 168.024 286.172 168.024 286.04L168.276 281.492C168.276 281.36 168.12 281.24 167.904 281.216L166.86 281.12C166.656 281.12 166.476 281.204 166.476 281.336L166.224 285.884C166.224 286.016 166.392 286.1 166.596 286.16Z" fill="black"/>
<path d="M162.3 268.232L156.3 260.228L153.804 269.828C153.804 269.828 158.268 273.728 162.06 272.228L162.3 268.232Z" fill="#FF8B7B"/>
<path d="M148.62 258.464L146.952 266.564L155.052 270.704L156.336 260.228L148.62 258.464Z" fill="#FF8B7B"/>
<path d="M174.804 193.304L172.884 193.064C172.884 193.064 174 194.348 174.804 193.304Z" fill="#263238"/>
</svg>
